<?xml version="1.0" encoding="UTF-8"?>
<svg id="Layer_1" data-name="Layer 1" xmlns="http://www.w3.org/2000/svg" viewBox="0 0 216.92 80">
  <defs>
    <style>
      .cls-1 {
        fill: #fff;
        stroke-width: 0px;
      }
    </style>
  </defs>
  <path class="cls-1" d="M130.38,11.76h19.86v4.3h-7.29v18.47h-5.28v-18.47h-7.29v-4.3Z"/>
  <path class="cls-1" d="M107.72,17.08c3.94-6.88,15.43-7.7,20.46-1.78l-3.39,3.12c-1.63-1.71-3.59-2.57-5.89-2.57s-2.75.3-3.87.91c-1.13.61-2.01,1.47-2.64,2.57-1.25,2.12-1.25,5.46,0,7.59,2,3.65,7.04,4.41,10.56,2.54v-6.68h4.82v9.25c-4.25,3.17-10.94,3.91-15.59,1.38-5.87-2.97-7.76-10.82-4.44-16.34h-.02,0Z"/>
  <path class="cls-1" d="M84.64,34.54h17.65v-4.23h-12.4v-5.27h10.58v-4.1h-10.58v-4.95h11.98v-4.23h-17.22v22.78h0Z"/>
  <path class="cls-1" d="M146.8,41.4h4.85v21.06h-4.85v-21.06Z"/>
  <path class="cls-1" d="M174.04,45.38h-6.71v17.08h-4.86v-17.08h-6.7v-3.98h18.27v3.98Z"/>
  <path class="cls-1" d="M216.92,62.46h-15.37v-21.06h4.85v17.08h10.52v3.98Z"/>
  <path class="cls-1" d="M122.37,46.32c3.63-6.34,14.21-7.09,18.83-1.63l-3.11,2.89c-1.5-1.58-3.31-2.37-5.42-2.37s-2.53.28-3.56.84c-1.04.56-1.84,1.36-2.43,2.37-1.15,1.96-1.16,5.06,0,7.02,1.83,3.37,6.48,4.07,9.71,2.35v-6.16h4.44v8.54c-3.91,2.93-10.06,3.6-14.35,1.28-5.43-2.76-7.12-9.97-4.09-15.09v-.02h-.01v-.02Z"/>
  <path class="cls-1" d="M110.88,41.4h4.85v21.06h-4.85v-21.06Z"/>
  <path class="cls-1" d="M188.49,41.4h-4.79l-9.34,21.06h4.97l1.86-4.51h9.74l1.86,4.51h5.09l-9.38-21.06h-.01ZM182.71,54.2l3.33-8.05,3.33,8.05h-6.66Z"/>
  <path class="cls-1" d="M104.27,46.4c-2.12-3.44-5.95-5-10.11-4.99h-9.53v21.06h9.53c2.27,0,4.28-.44,6.04-1.31,1.75-.87,3.1-2.1,4.07-3.68,1.93-3.03,1.94-8.04,0-11.07h0ZM98.63,56.83c-1.24,1.19-2.9,1.79-4.99,1.82l-4.44.05-.15-13.05,4.44-.05c2.1-.02,3.78.53,5.04,1.7,2.52,2.13,2.6,7.35.12,9.54h-.02Z"/>
  <path class="cls-1" d="M72.79,51.53c-7.18,4.12-15.67,7.88-24.69,10.92-13,4.33-25.63,6.38-36.23,6.38,10.38,9.98,25.63,13.9,40.15,9.2,14.3-4.71,24.17-16.56,27-30.09"/>
  <path class="cls-1" d="M78.83,32.71h-6.02v16.14c2.24-1.15,4.34-2.45,6.4-3.76.57-4.12.38-8.26-.38-12.38Z"/>
  <path class="cls-1" d="M77.72,28.43c0-.21,0-.38-.21-.73-1.89-5.86-5.07-11.08-9.06-15.2-7.91.56-16.78,2.24-25.84,5.27-9.06,3.04-17.14,6.59-23.74,10.7h13.57v4.33h-12.27v5.06h10.95v4.12h-10.95v5.43h12.63v4.33H14.73v-20.49C4.72,38.21-.52,46.09,1.37,52.31c3.4,10.7,27.52,12.38,53.72,3.98,4.34-1.32,8.28-3.04,12.27-4.71v-18.87h-7.55v-4.33h17.94v.05h-.03ZM41.35,44.05c.57,1.15,1.51,2.09,2.62,2.61s2.45.94,3.99.94,3.04-.38,4.13-.94v-6.8h4.93v9.41c-1.32.94-2.83,1.67-4.34,2.24-1.68.56-3.4.73-5.07.73-2.45,0-4.51-.56-6.61-1.51-1.89-.94-3.4-2.45-4.51-4.33s-1.68-3.98-1.68-6.21.57-4.33,1.68-6.21,2.62-3.18,4.51-4.33c1.89-.94,4.13-1.51,6.61-1.51s3.99.38,5.66.94c1.68.73,3.04,1.67,4.13,3.04l-3.4,3.18c-1.68-1.67-3.78-2.61-6.02-2.61s-2.83.38-3.99.94-2.1,1.51-2.62,2.61-.94,2.45-.94,3.98.38,2.82.94,3.98v-.09l-.02-.05h0Z"/>
  <path class="cls-1" d="M33.02,16.94c12.06-3.98,23.58-6,33.54-6.21C56.39,1.16,41.3-2.61,27.14,1.89,12.46,6.8,2.45,19.04,0,32.92c8.5-6.21,19.97-11.86,33.02-16.14v.16Z"/>
</svg>